<?xml version="1.0" standalone="no"?>
<!DOCTYPE svg PUBLIC "-//W3C//DTD SVG 20010904//EN"
 "http://www.w3.org/TR/2001/REC-SVG-20010904/DTD/svg10.dtd">
<svg version="1.0" xmlns="http://www.w3.org/2000/svg"
 width="500.000000pt" height="333.000000pt" viewBox="0 0 500.000000 333.000000"
 preserveAspectRatio="xMidYMid meet">

<g transform="translate(0.000000,333.000000) scale(0.100000,-0.100000)"
fill="#000000" stroke="none">
<path d="M0 1665 l0 -1665 2500 0 2500 0 0 1425 0 1425 -92 0 c-50 0 -88 3
-85 7 6 6 37 8 145 12 17 0 32 6 32 12 0 5 -8 9 -17 8 -10 -1 -54 0 -98 1 -71
2 -75 3 -40 11 22 4 66 8 98 8 l57 1 0 210 0 210 -2500 0 -2500 0 0 -1665z
m487 1229 c-3 -3 -12 -4 -19 -1 -8 3 -5 6 6 6 11 1 17 -2 13 -5z m300 -9 c0
-8 -1 -15 -1 -16 -12 -7 -161 -7 -216 -1 -50 6 -63 10 -40 12 l35 3 -35 7
c-22 5 20 8 111 9 123 1 146 -1 146 -14z m3259 8 c-10 -10 -266 -11 -266 -1 0
4 62 8 137 8 75 0 133 -3 129 -7z m-2164 -10 c-18 -2 -30 -9 -27 -14 4 -5 -40
-9 -109 -9 -98 0 -115 2 -110 15 5 12 30 15 143 13 75 0 121 -3 103 -5z m828
-3 c0 -5 -4 -10 -10 -10 -5 0 -10 5 -10 10 0 6 5 10 10 10 6 0 10 -4 10 -10z
m300 0 c0 -6 -53 -10 -140 -10 -87 0 -140 4 -140 10 0 6 53 10 140 10 87 0
140 -4 140 -10z m-1107 -17 c-7 -2 -19 -2 -25 0 -7 3 -2 5 12 5 14 0 19 -2 13
-5z m2027 -23 c0 -5 -5 -10 -11 -10 -5 0 -7 5 -4 10 3 6 8 10 11 10 2 0 4 -4
4 -10z m-113 -6 c-3 -3 -12 -4 -19 -1 -8 3 -5 6 6 6 11 1 17 -2 13 -5z m-2018
-690 c-14 -18 -39 -17 -62 1 -18 13 -17 14 5 17 13 2 33 2 46 -1 18 -3 20 -6
11 -17z m5 -53 c27 -30 11 -53 -38 -49 -31 2 -42 8 -45 22 -3 21 23 46 49 46
9 0 24 -8 34 -19z m3083 -87 c-3 -3 -12 -4 -19 -1 -8 3 -5 6 6 6 11 1 17 -2
13 -5z m-3077 -49 c0 -8 -7 -15 -15 -15 -16 0 -20 12 -8 23 11 12 23 8 23 -8z
m1233 -10 c4 -8 2 -17 -3 -20 -6 -4 -10 3 -10 14 0 25 6 27 13 6z m1818 -11
c10 -13 10 -17 -1 -24 -20 -12 -38 -1 -33 21 6 23 16 24 34 3z m30 -1 c13 -16
12 -17 -3 -4 -17 13 -22 21 -14 21 2 0 10 -8 17 -17z m-3336 -23 c3 -5 1 -10
-4 -10 -6 0 -11 5 -11 10 0 6 2 10 4 10 3 0 8 -4 11 -10z m1417 -30 c-6 -40
-21 -39 -16 3 1 17 3 33 3 35 1 2 5 1 9 -2 5 -3 7 -19 4 -36z m-452 21 c0 -5
-9 -7 -20 -4 -11 3 -20 7 -20 9 0 2 9 4 20 4 11 0 20 -4 20 -9z m2140 -2 c0
-11 -40 -48 -52 -49 -5 0 -8 9 -8 20 0 11 7 20 15 20 8 0 15 5 15 10 0 6 7 10
15 10 8 0 15 -5 15 -11z m-3760 -9 c0 -5 -5 -10 -11 -10 -5 0 -7 -6 -3 -12 5
-10 4 -10 -6 -1 -7 6 -9 16 -6 22 9 14 26 14 26 1z m3858 3 c-10 -2 -26 -2
-35 0 -10 3 -2 5 17 5 19 0 27 -2 18 -5z m-1103 -13 c3 -5 -1 -10 -9 -10 -9 0
-16 5 -16 10 0 6 4 10 9 10 6 0 13 -4 16 -10z m14 -29 c7 -5 11 -13 7 -19 -8
-14 -46 -3 -46 14 0 16 18 18 39 5z m-739 -16 c0 -8 -4 -15 -10 -15 -5 0 -7 7
-4 15 4 8 8 15 10 15 2 0 4 -7 4 -15z m-60 -24 c0 -5 -7 -11 -15 -15 -15 -5
-20 5 -8 17 9 10 23 9 23 -2z m794 1 c2 -4 -4 -9 -15 -9 -11 -1 -17 2 -14 8 7
11 22 12 29 1z m-757 -38 c-3 -3 -12 -4 -19 -1 -8 3 -5 6 6 6 11 1 17 -2 13
-5z m48 -15 c-22 -4 -53 -8 -70 -7 -29 1 -29 1 5 8 19 4 51 7 70 8 l35 0 -40
-9z m-1312 -56 c-7 -2 -19 -2 -25 0 -7 3 -2 5 12 5 14 0 19 -2 13 -5z m1417
-3 c-14 -4 -41 -8 -60 -8 l-35 1 40 7 c57 10 87 10 55 0z m-2257 -7 c-29 -2
-77 -2 -105 0 -29 2 -6 3 52 3 58 0 81 -1 53 -3z m1026 -9 c9 -8 -305 -2 -324
6 -11 4 56 6 150 3 94 -3 172 -7 174 -9z m969 9 c-32 -2 -86 -2 -120 0 -35 2
-9 3 57 3 66 0 94 -1 63 -3z m1155 0 c-29 -2 -77 -2 -105 0 -29 2 -6 3 52 3
58 0 81 -1 53 -3z m100 0 c-7 -2 -19 -2 -25 0 -7 3 -2 5 12 5 14 0 19 -2 13
-5z m662 -28 c0 -29 -2 -30 -42 -30 -40 -1 -43 1 -43 25 0 36 8 41 50 38 32
-3 35 -6 35 -33z m123 3 c3 -22 -2 -29 -23 -34 -34 -8 -60 15 -50 45 5 18 13
22 38 19 26 -2 33 -8 35 -30z m-1668 10 c-28 -11 -639 -25 -628 -13 4 4 98 7
210 7 112 -1 237 3 278 7 41 5 95 8 120 9 40 1 42 0 20 -10z m1770 -24 c0 -27
-3 -28 -31 -14 -10 6 -19 19 -19 29 0 14 6 17 25 13 18 -3 25 -11 25 -28z
m-4567 19 c-13 -2 -33 -2 -45 0 -13 2 -3 4 22 4 25 0 35 -2 23 -4z m377 -4
c135 -1 190 -4 160 -9 -54 -10 -415 0 -450 12 -17 5 -7 6 30 3 30 -3 147 -5
260 -6z m1198 4 c-21 -2 -55 -2 -75 0 -21 2 -4 4 37 4 41 0 58 -2 38 -4z
m2082 -3 c143 -2 168 -4 108 -9 -65 -6 -164 -6 -386 -2 -24 1 -41 5 -38 10 3
5 34 7 68 6 35 -1 146 -4 248 -5z m950 -10 c0 -11 -4 -20 -9 -20 -11 0 -22 26
-14 34 12 12 23 5 23 -14z m-3113 0 c160 0 212 -3 207 -12 -5 -8 -85 -10 -308
-5 -194 4 -293 3 -277 -4 30 -12 593 -17 649 -5 27 6 42 5 42 -2 0 -5 -16 -13
-35 -16 -37 -7 -50 -36 -16 -36 31 0 51 11 44 24 -3 6 2 4 13 -5 10 -8 32 -16
49 -17 16 -1 34 -7 39 -12 6 -6 20 -10 33 -10 25 0 28 -13 17 -69 -5 -21 -12
-31 -25 -31 -12 0 -21 -10 -25 -25 -3 -14 -10 -23 -14 -20 -13 8 -21 -25 -10
-44 8 -16 6 -17 -16 -13 -22 4 -24 8 -18 37 3 17 1 51 -6 74 -7 26 -7 47 -1
58 5 11 5 23 -1 33 -9 15 -17 15 -62 5 -28 -6 -76 -10 -106 -8 -66 3 -103 -4
-95 -18 5 -7 11 -6 20 1 10 9 16 6 25 -10 15 -29 8 -34 -42 -31 -25 1 -44 -3
-49 -11 -6 -8 -9 1 -9 25 0 34 -2 37 -29 37 -16 0 -43 3 -60 6 -26 5 -32 3
-40 -17 -7 -18 -10 -19 -10 -6 -1 21 -15 22 -34 2 -13 -12 -15 -12 -20 5 -9
34 -27 22 -29 -17 -1 -34 -2 -35 -5 -8 -5 36 -45 57 -82 43 -15 -5 -28 -4 -37
3 -7 6 -42 11 -78 11 -47 0 -69 5 -78 16 -11 13 -11 14 0 8 7 -4 88 -10 180
-12 92 -2 201 -7 243 -10 64 -6 77 -4 82 10 5 13 -1 16 -36 16 -76 0 -421 19
-460 26 -20 3 -34 10 -31 15 3 5 21 7 39 3 40 -7 65 3 44 18 -9 6 24 8 95 4
60 -3 205 -6 323 -6z m-1497 -14 c8 -2 -13 -4 -48 -5 -35 0 -61 3 -58 7 4 7
70 6 106 -2z m2830 2 c-120 -12 -142 -16 -135 -28 8 -13 108 -13 122 1 13 13
65 1 60 -15 -2 -6 -31 -12 -68 -13 -84 -3 -112 -7 -125 -15 -5 -4 -29 -2 -51
3 -33 9 -47 8 -72 -5 -17 -9 -31 -12 -31 -6 0 5 -5 10 -11 10 -5 0 -7 -5 -4
-10 3 -6 -1 -13 -10 -17 -10 -3 -20 -1 -24 4 -3 6 -21 14 -38 18 -18 3 -33 11
-33 16 0 10 40 13 152 9 57 -1 83 2 100 14 21 15 14 16 -119 16 -165 0 -209
-6 -192 -26 6 -8 21 -14 33 -14 19 -1 19 -2 3 -11 -10 -6 -58 -8 -112 -6 -103
4 -142 17 -54 17 30 0 62 7 72 14 19 15 -2 19 -153 29 -25 2 36 5 135 6 99 2
243 7 320 10 77 4 183 8 235 8 l95 0 -95 -9z m-3050 -8 c0 -12 -45 -24 -59
-15 -22 13 -10 25 24 25 19 0 35 -4 35 -10z m325 0 c4 -6 -10 -10 -34 -10 -22
0 -43 5 -46 10 -4 6 10 10 34 10 22 0 43 -4 46 -10z m563 3 c-36 -9 -12 -32
35 -34 16 0 12 -5 -18 -18 -30 -13 -63 -17 -135 -16 -52 1 -106 -2 -120 -5
-16 -5 -30 -2 -38 6 -11 12 7 14 110 14 114 0 176 11 138 24 -27 9 -90 12 -90
5 0 -4 -9 -5 -20 -2 -39 10 -19 22 43 26 96 5 114 5 95 0z m3041 -6 c150 1
248 -2 240 -8 -19 -11 -612 -3 -669 10 -35 7 -20 8 65 3 61 -3 224 -6 364 -5z
m-3211 -17 c3 -9 -1 -11 -12 -7 -9 4 -93 7 -186 8 -94 1 -172 5 -175 9 -3 5
79 7 182 6 143 -2 188 -6 191 -16z m3499 14 c-3 -3 -12 -4 -19 -1 -8 3 -5 6 6
6 11 1 17 -2 13 -5z m-3865 -31 c16 -14 38 -17 131 -16 100 1 109 -1 92 -13
-11 -8 -28 -13 -37 -11 -11 3 -21 -4 -28 -22 l-10 -26 4 28 c3 26 1 27 -43 29
-25 1 -66 3 -91 5 -25 1 -80 3 -122 4 -46 0 -84 6 -95 14 -15 11 -4 12 68 8
59 -4 88 -2 93 6 10 15 16 14 38 -6z m658 -5 c0 -16 -3 -19 -11 -11 -6 6 -8
16 -5 22 11 17 16 13 16 -11z m2140 12 c0 -5 -4 -10 -10 -10 -5 0 -10 5 -10
10 0 6 5 10 10 10 6 0 10 -4 10 -10z m1080 -14 c50 -1 55 -3 58 -24 3 -18 8
-22 20 -17 38 16 55 18 48 7 -4 -7 -2 -12 3 -12 22 0 9 -26 -32 -66 -33 -32
-41 -46 -36 -60 13 -32 10 -39 -8 -22 -21 21 -43 84 -43 123 -1 52 -12 60 -65
48 -31 -7 -59 -7 -85 -1 -50 13 -110 3 -110 -18 0 -9 -7 -14 -17 -12 -11 2
-17 11 -15 21 2 14 -1 15 -22 8 -13 -6 -34 -7 -47 -4 -45 12 12 22 134 22 79
1 117 5 117 12 0 7 8 9 23 3 12 -4 47 -8 77 -8z m-4263 -4 c16 -10 12 -52 -5
-52 -9 0 -11 7 -7 19 4 13 0 23 -12 30 -14 8 -15 10 -3 11 8 0 20 -4 27 -8z
m1158 -12 c-20 -22 -19 -36 0 -20 8 7 15 8 15 2 0 -5 -7 -15 -15 -22 -11 -9
-15 -9 -15 -1 0 7 -5 9 -12 5 -8 -5 -9 -2 -5 10 4 10 7 24 7 31 0 8 9 13 20
12 17 -1 18 -3 5 -17z m2245 10 c0 -5 -6 -10 -13 -10 -8 0 -22 -9 -32 -20 -10
-11 -23 -20 -29 -20 -13 1 50 60 64 60 6 0 10 -4 10 -10z m147 4 c-3 -3 -12
-4 -19 -1 -8 3 -5 6 6 6 11 1 17 -2 13 -5z m53 -4 c13 -8 13 -10 -2 -10 -9 0
-20 5 -23 10 -8 13 5 13 25 0z m248 0 c31 0 32 -2 31 -37 -2 -31 -3 -33 -6
-10 -5 31 -4 31 -38 15 -22 -10 -28 -9 -35 3 -7 12 -26 15 -87 13 -43 -1 -82
1 -88 5 -11 7 138 20 170 14 11 -1 35 -3 53 -3z m-2833 -21 c0 -8 4 -17 10
-21 5 -4 7 -9 5 -12 -9 -8 -52 33 -45 44 9 15 30 7 30 -11z m1387 9 c-9 -9
-15 -9 -24 0 -9 9 -7 12 12 12 19 0 21 -3 12 -12z m858 -45 c0 -7 -58 36 -66
49 -4 7 9 -1 29 -16 20 -16 37 -30 37 -33z m-2 32 c-3 -3 -9 2 -12 12 -6 14
-5 15 5 6 7 -7 10 -15 7 -18z m-393 5 c3 -5 -1 -10 -9 -10 -9 0 -16 5 -16 10
0 6 4 10 9 10 6 0 13 -4 16 -10z m-2558 -37 c-3 -10 -5 -4 -5 12 0 17 2 24 5
18 2 -7 2 -21 0 -30z m789 25 c5 -7 3 -8 -6 -3 -10 6 -12 4 -7 -8 3 -9 3 -18
-1 -21 -4 -2 -9 6 -10 20 -2 25 12 32 24 12z m1177 -8 c-3 -11 -7 -20 -9 -20
-2 0 -4 9 -4 20 0 11 4 20 9 20 5 0 7 -9 4 -20z m150 1 c8 -8 2 -11 -25 -11
-19 0 -41 6 -47 13 -9 11 -4 14 25 12 19 -1 40 -7 47 -14z m241 4 c-21 -16
-54 -20 -54 -6 0 5 10 12 23 14 46 9 51 7 31 -8z m333 -17 c-3 -7 -5 -2 -5 12
0 14 2 19 5 13 2 -7 2 -19 0 -25z m-1680 -40 c-2 -13 -4 -3 -4 22 0 25 2 35 4
23 2 -13 2 -33 0 -45z m1213 47 c-11 -13 -63 -8 -55 5 3 5 19 8 35 8 22 -1 27
-4 20 -13z m970 0 c0 -8 5 -15 10 -15 6 0 10 5 10 10 0 15 19 12 37 -5 13 -14
11 -16 -16 -21 -17 -4 -31 -10 -31 -15 0 -5 -4 -9 -10 -9 -5 0 -11 15 -11 33
-1 17 -3 24 -6 15 -5 -21 -24 -23 -41 -6 -20 20 -14 28 23 28 24 0 35 -5 35
-15z m227 -32 c-3 -10 -5 -2 -5 17 0 19 2 27 5 18 2 -10 2 -26 0 -35z m-2997
27 c0 -5 -4 -10 -9 -10 -6 0 -13 5 -16 10 -3 6 1 10 9 10 9 0 16 -4 16 -10z
m127 -16 c-3 -3 -17 -2 -32 2 -19 5 -23 9 -14 15 13 7 55 -8 46 -17z m2528 -1
c-5 -23 -4 -25 10 -13 13 11 15 10 9 -4 -13 -33 -40 -10 -29 24 9 30 18 24 10
-7z m281 -2 c-8 -13 -36 -15 -36 -3 0 4 5 13 12 20 14 14 34 0 24 -17z m-1678
1 c5 -17 -27 -27 -41 -13 -9 9 -8 14 3 21 18 11 32 8 38 -8z m1722 10 c0 -13
-12 -22 -22 -16 -10 6 -1 24 13 24 5 0 9 -4 9 -8z m-2665 -12 c-3 -5 0 -10 7
-10 9 0 9 -3 -2 -10 -10 -6 -11 -10 -2 -10 6 0 12 -5 12 -11 0 -8 -4 -9 -13 0
-8 6 -17 8 -20 4 -4 -3 -7 -1 -7 5 0 7 5 12 10 12 6 0 9 3 9 8 -2 12 1 22 7
22 3 0 2 -4 -1 -10z m122 -15 c-4 -8 -11 -15 -17 -15 -7 0 -7 6 0 21 13 23 26
19 17 -6z m-150 9 c-3 -3 -12 -4 -19 -1 -8 3 -5 6 6 6 11 1 17 -2 13 -5z
m1232 -38 c-9 -8 -10 -7 -5 7 3 10 7 24 7 30 1 7 3 4 6 -7 3 -10 -1 -23 -8
-30z m1111 34 c0 -5 -5 -10 -11 -10 -5 0 -7 5 -4 10 3 6 8 10 11 10 2 0 4 -4
4 -10z m-1733 -22 c-3 -8 -6 -5 -6 6 -1 11 2 17 5 13 3 -3 4 -12 1 -19z m2244
-108 c-8 -21 -10 -14 -10 37 -1 82 13 117 17 43 2 -31 -2 -67 -7 -80z m729
120 c13 -8 13 -10 -2 -10 -9 0 -20 5 -23 10 -8 13 5 13 25 0z m-2862 -7 c-10
-2 -26 -2 -35 0 -10 3 -2 5 17 5 19 0 27 -2 18 -5z m1012 -25 c0 -25 -3 -29
-10 -18 -13 20 -13 50 0 50 6 0 10 -15 10 -32z m-803 16 c-3 -3 -12 -4 -19 -1
-8 3 -5 6 6 6 11 1 17 -2 13 -5z m40 0 c-3 -3 -12 -4 -19 -1 -8 3 -5 6 6 6 11
1 17 -2 13 -5z m1943 -4 c0 -5 -9 -10 -20 -10 -11 0 -20 5 -20 10 0 6 9 10 20
10 11 0 20 -4 20 -10z m-3393 -77 c-2 -16 -4 -3 -4 27 0 30 2 43 4 28 2 -16 2
-40 0 -55z m428 67 c3 -5 1 -10 -4 -10 -6 0 -11 5 -11 10 0 6 2 10 4 10 3 0 8
-4 11 -10z m662 -87 c-2 -16 -4 -3 -4 27 0 30 2 43 4 28 2 -16 2 -40 0 -55z
m3147 67 c-5 -5 -38 -10 -74 -11 -89 -2 -100 0 -100 11 0 6 37 10 92 10 59 0
89 -3 82 -10z m-3028 -25 c-3 -9 -11 -13 -16 -10 -8 5 -7 11 1 21 14 18 24 11
15 -11z m134 -5 c0 -5 -5 -10 -11 -10 -5 0 -7 5 -4 10 3 6 8 10 11 10 2 0 4
-4 4 -10z m50 0 c0 -5 -4 -10 -10 -10 -5 0 -10 5 -10 10 0 6 5 10 10 10 6 0
10 -4 10 -10z m822 -72 c2 -27 0 -48 -4 -48 -5 0 -7 30 -7 68 2 69 6 62 11
-20z m-2348 27 c-4 -8 -8 -15 -10 -15 -2 0 -4 7 -4 15 0 8 4 15 10 15 5 0 7
-7 4 -15z m3526 0 c-7 -8 -17 -15 -22 -15 -6 0 -5 7 2 15 7 8 17 15 22 15 6 0
5 -7 -2 -15z m-1320 -16 c0 -16 -28 -40 -35 -30 -3 6 -13 7 -21 4 -14 -5 -15
-3 -5 15 12 23 61 31 61 11z m-2169 -19 c10 -6 19 -21 19 -33 0 -17 -2 -19 -9
-8 -7 11 -13 8 -28 -17 -15 -24 -22 -29 -31 -20 -15 15 -15 29 -2 62 10 28 21
31 51 16z m3129 -16 c0 -12 -2 -12 -14 -2 -8 7 -12 16 -9 21 7 11 23 -2 23
-19z m-530 -6 c0 -6 -8 -20 -17 -31 -10 -11 -13 -17 -6 -13 7 4 16 -2 23 -13
8 -17 6 -22 -11 -31 -24 -13 -41 -4 -19 10 13 8 12 10 -3 10 -13 0 -17 6 -14
24 5 38 47 78 47 44z m585 1 c11 -17 -1 -21 -15 -4 -8 9 -8 15 -2 15 6 0 14
-5 17 -11z m-2008 -86 c-2 -16 -4 -5 -4 22 0 28 2 40 4 28 2 -13 2 -35 0 -50z
m228 57 c-3 -5 -11 -10 -16 -10 -6 0 -7 5 -4 10 3 6 11 10 16 10 6 0 7 -4 4
-10z m83 -2 c-5 -15 -48 -24 -48 -10 0 14 12 22 33 22 10 0 17 -5 15 -12z
m1809 6 c-3 -3 -12 -4 -19 -1 -8 3 -5 6 6 6 11 1 17 -2 13 -5z m-72 -14 c3 -5
2 -10 -4 -10 -5 0 -13 5 -16 10 -3 6 -2 10 4 10 5 0 13 -4 16 -10z m-2085 -30
c0 -22 -16 -35 -25 -20 -3 5 0 10 7 10 9 1 7 5 -4 14 -20 14 -14 28 8 19 8 -3
14 -13 14 -23z m1167 -42 c-2 -13 -4 -3 -4 22 0 25 2 35 4 23 2 -13 2 -33 0
-45z m1430 56 c-3 -3 -12 -4 -19 -1 -8 3 -5 6 6 6 11 1 17 -2 13 -5z m-2372
-14 c3 -5 -3 -10 -15 -10 -12 0 -18 5 -15 10 3 6 10 10 15 10 5 0 12 -4 15
-10z m870 -39 c-3 -6 -11 -8 -17 -5 -6 4 -5 9 3 15 16 10 23 4 14 -10z m-2105
0 c0 -5 -7 -14 -15 -21 -12 -10 -15 -10 -15 2 0 8 3 18 7 21 9 10 23 9 23 -2z
m938 -19 c-5 -23 -28 -27 -28 -4 0 10 7 19 15 19 9 0 15 -7 13 -15z m72 8 c0
-5 -8 -10 -17 -10 -15 0 -16 2 -3 10 19 12 20 12 20 0z m-1064 -36 c-5 -19
-10 -24 -17 -17 -8 8 -7 18 1 33 15 28 24 19 16 -16z m1071 -40 c-8 -9 -47 29
-47 46 0 10 8 6 26 -13 14 -16 24 -31 21 -33z m-60 24 c-3 -8 -6 -5 -6 6 -1
11 2 17 5 13 3 -3 4 -12 1 -19z m1443 -3 c0 -14 -3 -25 -7 -25 -5 0 -8 11 -8
25 0 14 3 25 8 25 4 0 7 -11 7 -25z m-2342 -22 c-10 -2 -26 -2 -35 0 -10 3 -2
5 17 5 19 0 27 -2 18 -5z m2232 -3 c14 -7 20 -20 19 -43 0 -18 -3 -26 -6 -19
-2 6 -9 9 -14 6 -6 -3 -16 -1 -23 5 -7 6 -22 9 -34 6 -12 -2 -25 2 -29 9 -5 7
-18 19 -30 27 -20 14 -18 15 38 17 33 1 68 -2 79 -8z m-2385 -10 c3 -5 2 -10
-4 -10 -5 0 -13 5 -16 10 -3 6 -2 10 4 10 5 0 13 -4 16 -10z m2459 -1 c-3 -5
-14 -9 -25 -9 -10 0 -19 4 -19 9 0 5 11 9 25 9 13 0 22 -4 19 -9z m-1327 -21
c-3 -8 -6 -5 -6 6 -1 11 2 17 5 13 3 -3 4 -12 1 -19z"/>
<path d="M1678 2873 c7 -3 16 -2 19 1 4 3 -2 6 -13 5 -11 0 -14 -3 -6 -6z"/>
<path d="M1950 1590 c0 -6 27 -10 60 -10 33 0 60 4 60 10 0 6 -27 10 -60 10
-33 0 -60 -4 -60 -10z"/>
<path d="M1910 1531 c0 -12 6 -21 15 -21 8 0 15 4 15 9 0 5 -7 14 -15 21 -13
10 -15 9 -15 -9z"/>
</g>
</svg>
